<svg width="512" height="352" viewBox="0 0 512 352" fill="none" xmlns="http://www.w3.org/2000/svg">
<g clip-path="url(#clip0_12_33)">
<path d="M512 0H0V352H512V0Z" fill="white"/>
<path d="M67.55 98.3C69.8167 98.3 71.4667 97.9167 72.5 97.15C73.5333 96.3833 74.05 95.3 74.05 93.9C74.05 93.0667 73.8667 92.35 73.5 91.75C73.1667 91.15 72.6667 90.6167 72 90.15C71.3667 89.65 70.5833 89.2 69.65 88.8C68.7167 88.3667 67.65 87.95 66.45 87.55C65.25 87.1167 64.0833 86.65 62.95 86.15C61.85 85.6167 60.8667 84.9667 60 84.2C59.1667 83.4333 58.4833 82.5167 57.95 81.45C57.45 80.3833 57.2 79.1 57.2 77.6C57.2 74.4667 58.2833 72.0167 60.45 70.25C62.6167 68.45 65.5667 67.55 69.3 67.55C71.4667 67.55 73.3833 67.8 75.05 68.3C76.75 68.7667 78.0833 69.2833 79.05 69.85L77.1 74.95C75.9667 74.3167 74.7167 73.8333 73.35 73.5C72.0167 73.1667 70.6333 73 69.2 73C67.5 73 66.1667 73.35 65.2 74.05C64.2667 74.75 63.8 75.7333 63.8 77C63.8 77.7667 63.95 78.4333 64.25 79C64.5833 79.5333 65.0333 80.0167 65.6 80.45C66.2 80.8833 66.8833 81.2833 67.65 81.65C68.45 82.0167 69.3167 82.3667 70.25 82.7C71.8833 83.3 73.3333 83.9167 74.6 84.55C75.9 85.15 76.9833 85.8833 77.85 86.75C78.75 87.5833 79.4333 88.5833 79.9 89.75C80.3667 90.8833 80.6 92.2667 80.6 93.9C80.6 97.0333 79.4833 99.4667 77.25 101.2C75.05 102.9 71.8167 103.75 67.55 103.75C66.1167 103.75 64.8 103.65 63.6 103.45C62.4333 103.283 61.3833 103.067 60.45 102.8C59.55 102.533 58.7667 102.267 58.1 102C57.4333 101.7 56.9 101.433 56.5 101.2L58.35 96.05C59.25 96.55 60.4667 97.05 62 97.55C63.5333 98.05 65.3833 98.3 67.55 98.3ZM91.952 103H85.902V76.85H91.952V103ZM92.602 69.2C92.602 70.3333 92.2353 71.2333 91.502 71.9C90.7686 72.5667 89.902 72.9 88.902 72.9C87.8686 72.9 86.9853 72.5667 86.252 71.9C85.5186 71.2333 85.152 70.3333 85.152 69.2C85.152 68.0333 85.5186 67.1167 86.252 66.45C86.9853 65.7833 87.8686 65.45 88.902 65.45C89.902 65.45 90.7686 65.7833 91.502 66.45C92.2353 67.1167 92.602 68.0333 92.602 69.2ZM114.57 89.25C114.57 86.5167 114.22 84.55 113.52 83.35C112.854 82.1167 111.587 81.5 109.72 81.5C109.054 81.5 108.32 81.55 107.52 81.65C106.72 81.75 106.12 81.8333 105.72 81.9V103H99.6703V77.7C100.837 77.3667 102.354 77.05 104.22 76.75C106.12 76.45 108.12 76.3 110.22 76.3C112.02 76.3 113.487 76.5333 114.62 77C115.787 77.4667 116.754 78.0833 117.52 78.85C117.887 78.5833 118.354 78.3 118.92 78C119.487 77.7 120.12 77.4333 120.82 77.2C121.52 76.9333 122.254 76.7167 123.02 76.55C123.82 76.3833 124.62 76.3 125.42 76.3C127.454 76.3 129.12 76.6 130.42 77.2C131.754 77.7667 132.787 78.5833 133.52 79.65C134.287 80.6833 134.804 81.95 135.07 83.45C135.37 84.9167 135.52 86.5333 135.52 88.3V103H129.47V89.25C129.47 86.5167 129.137 84.55 128.47 83.35C127.804 82.1167 126.52 81.5 124.62 81.5C123.654 81.5 122.737 81.6667 121.87 82C121.004 82.3 120.354 82.6 119.92 82.9C120.187 83.7333 120.37 84.6167 120.47 85.55C120.57 86.4833 120.62 87.4833 120.62 88.55V103H114.57V89.25ZM160.282 90.05C160.282 87.35 159.665 85.25 158.432 83.75C157.232 82.25 155.282 81.5 152.582 81.5C152.015 81.5 151.415 81.5333 150.782 81.6C150.182 81.6333 149.582 81.7333 148.982 81.9V96.85C149.515 97.2167 150.215 97.5667 151.082 97.9C151.982 98.2 152.932 98.35 153.932 98.35C156.132 98.35 157.732 97.6 158.732 96.1C159.765 94.6 160.282 92.5833 160.282 90.05ZM166.482 89.95C166.482 91.95 166.215 93.7833 165.682 95.45C165.182 97.1167 164.449 98.55 163.482 99.75C162.515 100.95 161.299 101.883 159.832 102.55C158.399 103.217 156.765 103.55 154.932 103.55C153.699 103.55 152.565 103.4 151.532 103.1C150.499 102.8 149.649 102.467 148.982 102.1V112.25H142.932V77.7C144.165 77.3667 145.682 77.05 147.482 76.75C149.282 76.45 151.182 76.3 153.182 76.3C155.249 76.3 157.099 76.6167 158.732 77.25C160.365 77.8833 161.749 78.8 162.882 80C164.049 81.1667 164.932 82.6 165.532 84.3C166.165 85.9667 166.482 87.85 166.482 89.95ZM181.817 103.5C180.017 103.467 178.517 103.267 177.317 102.9C176.151 102.533 175.217 102.017 174.517 101.35C173.817 100.65 173.317 99.8 173.017 98.8C172.751 97.7667 172.617 96.6 172.617 95.3V65.2L178.667 64.2V94.15C178.667 94.8833 178.717 95.5 178.817 96C178.951 96.5 179.167 96.9333 179.467 97.3C179.767 97.6333 180.167 97.9 180.667 98.1C181.201 98.2667 181.867 98.4 182.667 98.5L181.817 103.5ZM186.111 90.05C186.111 87.75 186.444 85.7333 187.111 84C187.811 82.2667 188.728 80.8333 189.861 79.7C190.994 78.5333 192.294 77.6667 193.761 77.1C195.228 76.5 196.728 76.2 198.261 76.2C201.861 76.2 204.661 77.3167 206.661 79.55C208.694 81.7833 209.711 85.1167 209.711 89.55C209.711 89.8833 209.694 90.2667 209.661 90.7C209.661 91.1 209.644 91.4667 209.611 91.8H192.361C192.528 93.9 193.261 95.5333 194.561 96.7C195.894 97.8333 197.811 98.4 200.311 98.4C201.778 98.4 203.111 98.2667 204.311 98C205.544 97.7333 206.511 97.45 207.211 97.15L208.011 102.1C207.678 102.267 207.211 102.45 206.611 102.65C206.044 102.817 205.378 102.967 204.611 103.1C203.878 103.267 203.078 103.4 202.211 103.5C201.344 103.6 200.461 103.65 199.561 103.65C197.261 103.65 195.261 103.317 193.561 102.65C191.861 101.95 190.461 101 189.361 99.8C188.261 98.5667 187.444 97.1333 186.911 95.5C186.378 93.8333 186.111 92.0167 186.111 90.05ZM203.661 87.35C203.661 86.5167 203.544 85.7333 203.311 85C203.078 84.2333 202.728 83.5833 202.261 83.05C201.828 82.4833 201.278 82.05 200.611 81.75C199.978 81.4167 199.211 81.25 198.311 81.25C197.378 81.25 196.561 81.4333 195.861 81.8C195.161 82.1333 194.561 82.5833 194.061 83.15C193.594 83.7167 193.228 84.3667 192.961 85.1C192.694 85.8333 192.511 86.5833 192.411 87.35H203.661Z" fill="#FF0000"/>
<path d="M394.683 69.95L400.733 68.95V76.85H410.033V81.9H400.733V92.55C400.733 94.65 401.066 96.15 401.733 97.05C402.399 97.95 403.533 98.4 405.133 98.4C406.233 98.4 407.199 98.2833 408.033 98.05C408.899 97.8167 409.583 97.6 410.083 97.4L411.083 102.2C410.383 102.5 409.466 102.8 408.333 103.1C407.199 103.433 405.866 103.6 404.333 103.6C402.466 103.6 400.899 103.35 399.633 102.85C398.399 102.35 397.416 101.633 396.683 100.7C395.949 99.7333 395.433 98.5833 395.133 97.25C394.833 95.8833 394.683 94.3333 394.683 92.6V69.95ZM438.945 89.9C438.945 91.9667 438.645 93.85 438.045 95.55C437.445 97.25 436.595 98.7 435.495 99.9C434.395 101.1 433.062 102.033 431.495 102.7C429.962 103.367 428.262 103.7 426.395 103.7C424.529 103.7 422.829 103.367 421.295 102.7C419.762 102.033 418.445 101.1 417.345 99.9C416.245 98.7 415.379 97.25 414.745 95.55C414.145 93.85 413.845 91.9667 413.845 89.9C413.845 87.8333 414.145 85.9667 414.745 84.3C415.379 82.6 416.245 81.15 417.345 79.95C418.479 78.75 419.812 77.8333 421.345 77.2C422.879 76.5333 424.562 76.2 426.395 76.2C428.229 76.2 429.912 76.5333 431.445 77.2C433.012 77.8333 434.345 78.75 435.445 79.95C436.545 81.15 437.395 82.6 437.995 84.3C438.629 85.9667 438.945 87.8333 438.945 89.9ZM432.745 89.9C432.745 87.3 432.179 85.25 431.045 83.75C429.945 82.2167 428.395 81.45 426.395 81.45C424.395 81.45 422.829 82.2167 421.695 83.75C420.595 85.25 420.045 87.3 420.045 89.9C420.045 92.5333 420.595 94.6167 421.695 96.15C422.829 97.6833 424.395 98.45 426.395 98.45C428.395 98.45 429.945 97.6833 431.045 96.15C432.179 94.6167 432.745 92.5333 432.745 89.9ZM73.75 146.25C73.75 143.517 73.4 141.55 72.7 140.35C72.0333 139.117 70.7667 138.5 68.9 138.5C68.2333 138.5 67.5 138.55 66.7 138.65C65.9 138.75 65.3 138.833 64.9 138.9V160H58.85V134.7C60.0167 134.367 61.5333 134.05 63.4 133.75C65.3 133.45 67.3 133.3 69.4 133.3C71.2 133.3 72.6667 133.533 73.8 134C74.9667 134.467 75.9333 135.083 76.7 135.85C77.0667 135.583 77.5333 135.3 78.1 135C78.6667 134.7 79.3 134.433 80 134.2C80.7 133.933 81.4333 133.717 82.2 133.55C83 133.383 83.8 133.3 84.6 133.3C86.6333 133.3 88.3 133.6 89.6 134.2C90.9333 134.767 91.9667 135.583 92.7 136.65C93.4667 137.683 93.9833 138.95 94.25 140.45C94.55 141.917 94.7 143.533 94.7 145.3V160H88.65V146.25C88.65 143.517 88.3167 141.55 87.65 140.35C86.9833 139.117 85.7 138.5 83.8 138.5C82.8333 138.5 81.9167 138.667 81.05 139C80.1833 139.3 79.5333 139.6 79.1 139.9C79.3667 140.733 79.55 141.617 79.65 142.55C79.75 143.483 79.8 144.483 79.8 145.55V160H73.75V146.25ZM111.312 155.75C113.178 155.75 114.595 155.65 115.562 155.45V148.75C115.228 148.65 114.745 148.55 114.112 148.45C113.478 148.35 112.778 148.3 112.012 148.3C111.345 148.3 110.662 148.35 109.962 148.45C109.295 148.55 108.678 148.733 108.112 149C107.578 149.267 107.145 149.65 106.812 150.15C106.478 150.617 106.312 151.217 106.312 151.95C106.312 153.383 106.762 154.383 107.662 154.95C108.562 155.483 109.778 155.75 111.312 155.75ZM110.812 133.2C112.812 133.2 114.495 133.45 115.862 133.95C117.228 134.45 118.312 135.15 119.112 136.05C119.945 136.95 120.528 138.05 120.862 139.35C121.228 140.617 121.412 142.017 121.412 143.55V159.4C120.478 159.6 119.062 159.833 117.162 160.1C115.295 160.4 113.178 160.55 110.812 160.55C109.245 160.55 107.812 160.4 106.512 160.1C105.212 159.8 104.095 159.317 103.162 158.65C102.262 157.983 101.545 157.117 101.012 156.05C100.512 154.983 100.262 153.667 100.262 152.1C100.262 150.6 100.545 149.333 101.112 148.3C101.712 147.267 102.512 146.433 103.512 145.8C104.512 145.133 105.662 144.667 106.962 144.4C108.295 144.1 109.678 143.95 111.112 143.95C111.778 143.95 112.478 144 113.212 144.1C113.945 144.167 114.728 144.3 115.562 144.5V143.5C115.562 142.8 115.478 142.133 115.312 141.5C115.145 140.867 114.845 140.317 114.412 139.85C114.012 139.35 113.462 138.967 112.762 138.7C112.095 138.433 111.245 138.3 110.212 138.3C108.812 138.3 107.528 138.4 106.362 138.6C105.195 138.8 104.245 139.033 103.512 139.3L102.762 134.4C103.528 134.133 104.645 133.867 106.112 133.6C107.578 133.333 109.145 133.2 110.812 133.2ZM134.871 144.05C135.637 143.25 136.454 142.4 137.321 141.5C138.187 140.567 139.037 139.65 139.871 138.75C140.704 137.817 141.487 136.933 142.221 136.1C142.987 135.233 143.637 134.483 144.171 133.85H151.321C149.654 135.717 147.887 137.65 146.021 139.65C144.187 141.65 142.337 143.6 140.471 145.5C141.471 146.333 142.521 147.35 143.621 148.55C144.721 149.717 145.787 150.967 146.821 152.3C147.854 153.633 148.821 154.967 149.721 156.3C150.621 157.633 151.371 158.867 151.971 160H144.971C144.371 158.967 143.671 157.883 142.871 156.75C142.104 155.617 141.271 154.517 140.371 153.45C139.471 152.383 138.554 151.383 137.621 150.45C136.687 149.483 135.771 148.667 134.871 148V160H128.821V122.2L134.871 121.2V144.05ZM153.738 147.05C153.738 144.75 154.071 142.733 154.738 141C155.438 139.267 156.355 137.833 157.488 136.7C158.621 135.533 159.921 134.667 161.388 134.1C162.855 133.5 164.355 133.2 165.888 133.2C169.488 133.2 172.288 134.317 174.288 136.55C176.321 138.783 177.338 142.117 177.338 146.55C177.338 146.883 177.321 147.267 177.288 147.7C177.288 148.1 177.271 148.467 177.238 148.8H159.988C160.155 150.9 160.888 152.533 162.188 153.7C163.521 154.833 165.438 155.4 167.938 155.4C169.405 155.4 170.738 155.267 171.938 155C173.171 154.733 174.138 154.45 174.838 154.15L175.638 159.1C175.305 159.267 174.838 159.45 174.238 159.65C173.671 159.817 173.005 159.967 172.238 160.1C171.505 160.267 170.705 160.4 169.838 160.5C168.971 160.6 168.088 160.65 167.188 160.65C164.888 160.65 162.888 160.317 161.188 159.65C159.488 158.95 158.088 158 156.988 156.8C155.888 155.567 155.071 154.133 154.538 152.5C154.005 150.833 153.738 149.017 153.738 147.05ZM171.288 144.35C171.288 143.517 171.171 142.733 170.938 142C170.705 141.233 170.355 140.583 169.888 140.05C169.455 139.483 168.905 139.05 168.238 138.75C167.605 138.417 166.838 138.25 165.938 138.25C165.005 138.25 164.188 138.433 163.488 138.8C162.788 139.133 162.188 139.583 161.688 140.15C161.221 140.717 160.855 141.367 160.588 142.1C160.321 142.833 160.138 143.583 160.038 144.35H171.288Z" fill="black"/>
<path d="M244.295 73.1C240.729 73.1 237.995 74.2167 236.095 76.45C234.229 78.65 233.295 81.7167 233.295 85.65C233.295 87.5167 233.512 89.2333 233.945 90.8C234.412 92.3333 235.079 93.65 235.945 94.75C236.845 95.85 237.945 96.7167 239.245 97.35C240.579 97.95 242.129 98.25 243.895 98.25C244.995 98.25 245.945 98.2167 246.745 98.15C247.545 98.05 248.179 97.9333 248.645 97.8V85.35H254.945V102C254.079 102.333 252.612 102.7 250.545 103.1C248.479 103.5 246.095 103.7 243.395 103.7C240.895 103.7 238.612 103.3 236.545 102.5C234.479 101.7 232.712 100.533 231.245 99C229.812 97.4667 228.695 95.5833 227.895 93.35C227.095 91.1167 226.695 88.55 226.695 85.65C226.695 82.75 227.129 80.1833 227.995 77.95C228.895 75.7167 230.112 73.8333 231.645 72.3C233.179 70.7333 234.979 69.55 237.045 68.75C239.112 67.95 241.312 67.55 243.645 67.55C245.245 67.55 246.662 67.6667 247.895 67.9C249.162 68.1 250.245 68.3333 251.145 68.6C252.045 68.8667 252.779 69.15 253.345 69.45C253.945 69.75 254.362 69.9667 254.595 70.1L252.695 75.25C251.695 74.65 250.445 74.15 248.945 73.75C247.479 73.3167 245.929 73.1 244.295 73.1ZM271.126 98.75C272.993 98.75 274.41 98.65 275.376 98.45V91.75C275.043 91.65 274.56 91.55 273.926 91.45C273.293 91.35 272.593 91.3 271.826 91.3C271.16 91.3 270.476 91.35 269.776 91.45C269.11 91.55 268.493 91.7333 267.926 92C267.393 92.2667 266.96 92.65 266.626 93.15C266.293 93.6167 266.126 94.2167 266.126 94.95C266.126 96.3833 266.576 97.3833 267.476 97.95C268.376 98.4833 269.593 98.75 271.126 98.75ZM270.626 76.2C272.626 76.2 274.31 76.45 275.676 76.95C277.043 77.45 278.126 78.15 278.926 79.05C279.76 79.95 280.343 81.05 280.676 82.35C281.043 83.6167 281.226 85.0167 281.226 86.55V102.4C280.293 102.6 278.876 102.833 276.976 103.1C275.11 103.4 272.993 103.55 270.626 103.55C269.06 103.55 267.626 103.4 266.326 103.1C265.026 102.8 263.91 102.317 262.976 101.65C262.076 100.983 261.36 100.117 260.826 99.05C260.326 97.9833 260.076 96.6667 260.076 95.1C260.076 93.6 260.36 92.3333 260.926 91.3C261.526 90.2667 262.326 89.4333 263.326 88.8C264.326 88.1333 265.476 87.6667 266.776 87.4C268.11 87.1 269.493 86.95 270.926 86.95C271.593 86.95 272.293 87 273.026 87.1C273.76 87.1667 274.543 87.3 275.376 87.5V86.5C275.376 85.8 275.293 85.1333 275.126 84.5C274.96 83.8667 274.66 83.3167 274.226 82.85C273.826 82.35 273.276 81.9667 272.576 81.7C271.91 81.4333 271.06 81.3 270.026 81.3C268.626 81.3 267.343 81.4 266.176 81.6C265.01 81.8 264.06 82.0333 263.326 82.3L262.576 77.4C263.343 77.1333 264.46 76.8667 265.926 76.6C267.393 76.3333 268.96 76.2 270.626 76.2ZM303.535 89.25C303.535 86.5167 303.185 84.55 302.485 83.35C301.818 82.1167 300.552 81.5 298.685 81.5C298.018 81.5 297.285 81.55 296.485 81.65C295.685 81.75 295.085 81.8333 294.685 81.9V103H288.635V77.7C289.802 77.3667 291.318 77.05 293.185 76.75C295.085 76.45 297.085 76.3 299.185 76.3C300.985 76.3 302.452 76.5333 303.585 77C304.752 77.4667 305.718 78.0833 306.485 78.85C306.852 78.5833 307.318 78.3 307.885 78C308.452 77.7 309.085 77.4333 309.785 77.2C310.485 76.9333 311.218 76.7167 311.985 76.55C312.785 76.3833 313.585 76.3 314.385 76.3C316.418 76.3 318.085 76.6 319.385 77.2C320.718 77.7667 321.752 78.5833 322.485 79.65C323.252 80.6833 323.768 81.95 324.035 83.45C324.335 84.9167 324.485 86.5333 324.485 88.3V103H318.435V89.25C318.435 86.5167 318.102 84.55 317.435 83.35C316.768 82.1167 315.485 81.5 313.585 81.5C312.618 81.5 311.702 81.6667 310.835 82C309.968 82.3 309.318 82.6 308.885 82.9C309.152 83.7333 309.335 84.6167 309.435 85.55C309.535 86.4833 309.585 87.4833 309.585 88.55V103H303.535V89.25ZM330.447 90.05C330.447 87.75 330.78 85.7333 331.447 84C332.147 82.2667 333.064 80.8333 334.197 79.7C335.33 78.5333 336.63 77.6667 338.097 77.1C339.564 76.5 341.064 76.2 342.597 76.2C346.197 76.2 348.997 77.3167 350.997 79.55C353.03 81.7833 354.047 85.1167 354.047 89.55C354.047 89.8833 354.03 90.2667 353.997 90.7C353.997 91.1 353.98 91.4667 353.947 91.8H336.697C336.864 93.9 337.597 95.5333 338.897 96.7C340.23 97.8333 342.147 98.4 344.647 98.4C346.114 98.4 347.447 98.2667 348.647 98C349.88 97.7333 350.847 97.45 351.547 97.15L352.347 102.1C352.014 102.267 351.547 102.45 350.947 102.65C350.38 102.817 349.714 102.967 348.947 103.1C348.214 103.267 347.414 103.4 346.547 103.5C345.68 103.6 344.797 103.65 343.897 103.65C341.597 103.65 339.597 103.317 337.897 102.65C336.197 101.95 334.797 101 333.697 99.8C332.597 98.5667 331.78 97.1333 331.247 95.5C330.714 93.8333 330.447 92.0167 330.447 90.05ZM347.997 87.35C347.997 86.5167 347.88 85.7333 347.647 85C347.414 84.2333 347.064 83.5833 346.597 83.05C346.164 82.4833 345.614 82.05 344.947 81.75C344.314 81.4167 343.547 81.25 342.647 81.25C341.714 81.25 340.897 81.4333 340.197 81.8C339.497 82.1333 338.897 82.5833 338.397 83.15C337.93 83.7167 337.564 84.3667 337.297 85.1C337.03 85.8333 336.847 86.5833 336.747 87.35H347.997ZM367.011 98.65C368.611 98.65 369.778 98.4667 370.511 98.1C371.245 97.7 371.611 97.0333 371.611 96.1C371.611 95.2333 371.211 94.5167 370.411 93.95C369.645 93.3833 368.361 92.7667 366.561 92.1C365.461 91.7 364.445 91.2833 363.511 90.85C362.611 90.3833 361.828 89.85 361.161 89.25C360.495 88.65 359.961 87.9333 359.561 87.1C359.195 86.2333 359.011 85.1833 359.011 83.95C359.011 81.55 359.895 79.6667 361.661 78.3C363.428 76.9 365.828 76.2 368.861 76.2C370.395 76.2 371.861 76.35 373.261 76.65C374.661 76.9167 375.711 77.1833 376.411 77.45L375.311 82.35C374.645 82.05 373.795 81.7833 372.761 81.55C371.728 81.2833 370.528 81.15 369.161 81.15C367.928 81.15 366.928 81.3667 366.161 81.8C365.395 82.2 365.011 82.8333 365.011 83.7C365.011 84.1333 365.078 84.5167 365.211 84.85C365.378 85.1833 365.645 85.5 366.011 85.8C366.378 86.0667 366.861 86.35 367.461 86.65C368.061 86.9167 368.795 87.2 369.661 87.5C371.095 88.0333 372.311 88.5667 373.311 89.1C374.311 89.6 375.128 90.1833 375.761 90.85C376.428 91.4833 376.911 92.2167 377.211 93.05C377.511 93.8833 377.661 94.8833 377.661 96.05C377.661 98.55 376.728 100.45 374.861 101.75C373.028 103.017 370.395 103.65 366.961 103.65C364.661 103.65 362.811 103.45 361.411 103.05C360.011 102.683 359.028 102.383 358.461 102.15L359.511 97.1C360.411 97.4667 361.478 97.8167 362.711 98.15C363.978 98.4833 365.411 98.65 367.011 98.65ZM59.15 217V182.35H81.4V187.7H65.45V196.25H79.65V201.5H65.45V211.65H82.6V217H59.15ZM97.3469 212.75C99.2135 212.75 100.63 212.65 101.597 212.45V205.75C101.264 205.65 100.78 205.55 100.147 205.45C99.5135 205.35 98.8135 205.3 98.0469 205.3C97.3802 205.3 96.6969 205.35 95.9969 205.45C95.3302 205.55 94.7135 205.733 94.1469 206C93.6135 206.267 93.1802 206.65 92.8469 207.15C92.5135 207.617 92.3469 208.217 92.3469 208.95C92.3469 210.383 92.7969 211.383 93.6969 211.95C94.5969 212.483 95.8135 212.75 97.3469 212.75ZM96.8469 190.2C98.8469 190.2 100.53 190.45 101.897 190.95C103.264 191.45 104.347 192.15 105.147 193.05C105.98 193.95 106.564 195.05 106.897 196.35C107.264 197.617 107.447 199.017 107.447 200.55V216.4C106.514 216.6 105.097 216.833 103.197 217.1C101.33 217.4 99.2135 217.55 96.8469 217.55C95.2802 217.55 93.8469 217.4 92.5469 217.1C91.2469 216.8 90.1302 216.317 89.1969 215.65C88.2969 214.983 87.5802 214.117 87.0469 213.05C86.5469 211.983 86.2969 210.667 86.2969 209.1C86.2969 207.6 86.5802 206.333 87.1469 205.3C87.7469 204.267 88.5469 203.433 89.5469 202.8C90.5469 202.133 91.6969 201.667 92.9969 201.4C94.3302 201.1 95.7135 200.95 97.1469 200.95C97.8135 200.95 98.5135 201 99.2469 201.1C99.9802 201.167 100.764 201.3 101.597 201.5V200.5C101.597 199.8 101.514 199.133 101.347 198.5C101.18 197.867 100.88 197.317 100.447 196.85C100.047 196.35 99.4969 195.967 98.7969 195.7C98.1302 195.433 97.2802 195.3 96.2469 195.3C94.8469 195.3 93.5635 195.4 92.3969 195.6C91.2302 195.8 90.2802 196.033 89.5469 196.3L88.7969 191.4C89.5635 191.133 90.6802 190.867 92.1469 190.6C93.6135 190.333 95.1802 190.2 96.8469 190.2ZM121.406 212.65C123.006 212.65 124.173 212.467 124.906 212.1C125.639 211.7 126.006 211.033 126.006 210.1C126.006 209.233 125.606 208.517 124.806 207.95C124.039 207.383 122.756 206.767 120.956 206.1C119.856 205.7 118.839 205.283 117.906 204.85C117.006 204.383 116.223 203.85 115.556 203.25C114.889 202.65 114.356 201.933 113.956 201.1C113.589 200.233 113.406 199.183 113.406 197.95C113.406 195.55 114.289 193.667 116.056 192.3C117.823 190.9 120.223 190.2 123.256 190.2C124.789 190.2 126.256 190.35 127.656 190.65C129.056 190.917 130.106 191.183 130.806 191.45L129.706 196.35C129.039 196.05 128.189 195.783 127.156 195.55C126.123 195.283 124.923 195.15 123.556 195.15C122.323 195.15 121.323 195.367 120.556 195.8C119.789 196.2 119.406 196.833 119.406 197.7C119.406 198.133 119.473 198.517 119.606 198.85C119.773 199.183 120.039 199.5 120.406 199.8C120.773 200.067 121.256 200.35 121.856 200.65C122.456 200.917 123.189 201.2 124.056 201.5C125.489 202.033 126.706 202.567 127.706 203.1C128.706 203.6 129.523 204.183 130.156 204.85C130.823 205.483 131.306 206.217 131.606 207.05C131.906 207.883 132.056 208.883 132.056 210.05C132.056 212.55 131.123 214.45 129.256 215.75C127.423 217.017 124.789 217.65 121.356 217.65C119.056 217.65 117.206 217.45 115.806 217.05C114.406 216.683 113.423 216.383 112.856 216.15L113.906 211.1C114.806 211.467 115.873 211.817 117.106 212.15C118.373 212.483 119.806 212.65 121.406 212.65ZM159.057 190.85C156.357 200.783 153.224 209.783 149.657 217.85C148.991 219.35 148.307 220.633 147.607 221.7C146.907 222.767 146.124 223.65 145.257 224.35C144.391 225.05 143.424 225.55 142.357 225.85C141.291 226.183 140.057 226.35 138.657 226.35C137.724 226.35 136.791 226.25 135.857 226.05C134.957 225.85 134.274 225.633 133.807 225.4L134.907 220.55C136.107 221.017 137.291 221.25 138.457 221.25C140.024 221.25 141.241 220.867 142.107 220.1C143.007 219.367 143.791 218.217 144.457 216.65C142.557 212.983 140.724 208.983 138.957 204.65C137.224 200.317 135.674 195.717 134.307 190.85H140.757C141.091 192.25 141.491 193.767 141.957 195.4C142.457 197.033 142.991 198.7 143.557 200.4C144.124 202.067 144.724 203.733 145.357 205.4C145.991 207.067 146.624 208.617 147.257 210.05C148.324 207.083 149.324 203.933 150.257 200.6C151.191 197.233 152.041 193.983 152.807 190.85H159.057Z" fill="#00FF00"/>
<path d="M217.622 154.55V160H195.722V125.35H202.022V154.55H217.622ZM220.193 147.05C220.193 144.75 220.526 142.733 221.193 141C221.893 139.267 222.81 137.833 223.943 136.7C225.076 135.533 226.376 134.667 227.843 134.1C229.31 133.5 230.81 133.2 232.343 133.2C235.943 133.2 238.743 134.317 240.743 136.55C242.776 138.783 243.793 142.117 243.793 146.55C243.793 146.883 243.776 147.267 243.743 147.7C243.743 148.1 243.726 148.467 243.693 148.8H226.443C226.61 150.9 227.343 152.533 228.643 153.7C229.976 154.833 231.893 155.4 234.393 155.4C235.86 155.4 237.193 155.267 238.393 155C239.626 154.733 240.593 154.45 241.293 154.15L242.093 159.1C241.76 159.267 241.293 159.45 240.693 159.65C240.126 159.817 239.46 159.967 238.693 160.1C237.96 160.267 237.16 160.4 236.293 160.5C235.426 160.6 234.543 160.65 233.643 160.65C231.343 160.65 229.343 160.317 227.643 159.65C225.943 158.95 224.543 158 223.443 156.8C222.343 155.567 221.526 154.133 220.993 152.5C220.46 150.833 220.193 149.017 220.193 147.05ZM237.743 144.35C237.743 143.517 237.626 142.733 237.393 142C237.16 141.233 236.81 140.583 236.343 140.05C235.91 139.483 235.36 139.05 234.693 138.75C234.06 138.417 233.293 138.25 232.393 138.25C231.46 138.25 230.643 138.433 229.943 138.8C229.243 139.133 228.643 139.583 228.143 140.15C227.676 140.717 227.31 141.367 227.043 142.1C226.776 142.833 226.593 143.583 226.493 144.35H237.743ZM259.407 155.75C261.274 155.75 262.691 155.65 263.657 155.45V148.75C263.324 148.65 262.841 148.55 262.207 148.45C261.574 148.35 260.874 148.3 260.107 148.3C259.441 148.3 258.757 148.35 258.057 148.45C257.391 148.55 256.774 148.733 256.207 149C255.674 149.267 255.241 149.65 254.907 150.15C254.574 150.617 254.407 151.217 254.407 151.95C254.407 153.383 254.857 154.383 255.757 154.95C256.657 155.483 257.874 155.75 259.407 155.75ZM258.907 133.2C260.907 133.2 262.591 133.45 263.957 133.95C265.324 134.45 266.407 135.15 267.207 136.05C268.041 136.95 268.624 138.05 268.957 139.35C269.324 140.617 269.507 142.017 269.507 143.55V159.4C268.574 159.6 267.157 159.833 265.257 160.1C263.391 160.4 261.274 160.55 258.907 160.55C257.341 160.55 255.907 160.4 254.607 160.1C253.307 159.8 252.191 159.317 251.257 158.65C250.357 157.983 249.641 157.117 249.107 156.05C248.607 154.983 248.357 153.667 248.357 152.1C248.357 150.6 248.641 149.333 249.207 148.3C249.807 147.267 250.607 146.433 251.607 145.8C252.607 145.133 253.757 144.667 255.057 144.4C256.391 144.1 257.774 143.95 259.207 143.95C259.874 143.95 260.574 144 261.307 144.1C262.041 144.167 262.824 144.3 263.657 144.5V143.5C263.657 142.8 263.574 142.133 263.407 141.5C263.241 140.867 262.941 140.317 262.507 139.85C262.107 139.35 261.557 138.967 260.857 138.7C260.191 138.433 259.341 138.3 258.307 138.3C256.907 138.3 255.624 138.4 254.457 138.6C253.291 138.8 252.341 139.033 251.607 139.3L250.857 134.4C251.624 134.133 252.741 133.867 254.207 133.6C255.674 133.333 257.241 133.2 258.907 133.2ZM291.816 139.3C291.316 139.133 290.616 138.967 289.716 138.8C288.85 138.6 287.833 138.5 286.666 138.5C286 138.5 285.283 138.567 284.516 138.7C283.783 138.833 283.266 138.95 282.966 139.05V160H276.916V135.1C278.083 134.667 279.533 134.267 281.266 133.9C283.033 133.5 284.983 133.3 287.116 133.3C287.516 133.3 287.983 133.333 288.516 133.4C289.05 133.433 289.583 133.5 290.116 133.6C290.65 133.667 291.166 133.767 291.666 133.9C292.166 134 292.566 134.1 292.866 134.2L291.816 139.3ZM297.082 134.7C298.249 134.367 299.766 134.05 301.632 133.75C303.499 133.45 305.566 133.3 307.832 133.3C309.966 133.3 311.749 133.6 313.182 134.2C314.616 134.767 315.749 135.583 316.582 136.65C317.449 137.683 318.049 138.95 318.382 140.45C318.749 141.917 318.932 143.533 318.932 145.3V160H312.882V146.25C312.882 144.85 312.782 143.667 312.582 142.7C312.416 141.7 312.116 140.9 311.682 140.3C311.282 139.667 310.716 139.217 309.982 138.95C309.282 138.65 308.416 138.5 307.382 138.5C306.616 138.5 305.816 138.55 304.982 138.65C304.149 138.75 303.532 138.833 303.132 138.9V160H297.082V134.7ZM332.43 160H326.38V133.85H332.43V160ZM333.08 126.2C333.08 127.333 332.714 128.233 331.98 128.9C331.247 129.567 330.38 129.9 329.38 129.9C328.347 129.9 327.464 129.567 326.73 128.9C325.997 128.233 325.63 127.333 325.63 126.2C325.63 125.033 325.997 124.117 326.73 123.45C327.464 122.783 328.347 122.45 329.38 122.45C330.38 122.45 331.247 122.783 331.98 123.45C332.714 124.117 333.08 125.033 333.08 126.2ZM340.149 134.7C341.315 134.367 342.832 134.05 344.699 133.75C346.565 133.45 348.632 133.3 350.899 133.3C353.032 133.3 354.815 133.6 356.249 134.2C357.682 134.767 358.815 135.583 359.649 136.65C360.515 137.683 361.115 138.95 361.449 140.45C361.815 141.917 361.999 143.533 361.999 145.3V160H355.949V146.25C355.949 144.85 355.849 143.667 355.649 142.7C355.482 141.7 355.182 140.9 354.749 140.3C354.349 139.667 353.782 139.217 353.049 138.95C352.349 138.65 351.482 138.5 350.449 138.5C349.682 138.5 348.882 138.55 348.049 138.65C347.215 138.75 346.599 138.833 346.199 138.9V160H340.149V134.7ZM374.147 146.25C374.147 148.817 374.697 150.7 375.797 151.9C376.93 153.067 378.38 153.65 380.147 153.65C381.114 153.65 382.014 153.517 382.847 153.25C383.714 152.983 384.414 152.667 384.947 152.3V138.75C384.514 138.65 383.98 138.567 383.347 138.5C382.714 138.4 381.914 138.35 380.947 138.35C378.747 138.35 377.064 139.083 375.897 140.55C374.73 141.983 374.147 143.883 374.147 146.25ZM390.997 157.35C390.997 161.517 389.93 164.567 387.797 166.5C385.697 168.433 382.464 169.4 378.097 169.4C376.497 169.4 374.93 169.267 373.397 169C371.897 168.733 370.53 168.383 369.297 167.95L370.397 162.8C371.43 163.233 372.597 163.583 373.897 163.85C375.23 164.117 376.664 164.25 378.197 164.25C380.63 164.25 382.364 163.75 383.397 162.75C384.43 161.75 384.947 160.267 384.947 158.3V157.3C384.347 157.6 383.547 157.9 382.547 158.2C381.58 158.5 380.464 158.65 379.197 158.65C377.53 158.65 375.997 158.383 374.597 157.85C373.23 157.317 372.047 156.533 371.047 155.5C370.08 154.467 369.314 153.183 368.747 151.65C368.214 150.083 367.947 148.283 367.947 146.25C367.947 144.35 368.23 142.6 368.797 141C369.397 139.4 370.247 138.033 371.347 136.9C372.48 135.767 373.847 134.883 375.447 134.25C377.047 133.617 378.864 133.3 380.897 133.3C382.864 133.3 384.73 133.45 386.497 133.75C388.264 134.05 389.764 134.367 390.997 134.7V157.35Z" fill="#0000FF"/>
<path d="M206.029 245.822C206.029 246.592 205.765 247.219 205.237 247.703C204.731 248.187 204.115 248.429 203.389 248.429C202.641 248.429 202.014 248.187 201.508 247.703C201.002 247.219 200.749 246.592 200.749 245.822C200.749 245.052 201.002 244.425 201.508 243.941C202.014 243.435 202.641 243.182 203.389 243.182C204.115 243.182 204.731 243.435 205.237 243.941C205.765 244.425 206.029 245.052 206.029 245.822ZM214.795 245.822C214.795 246.592 214.531 247.219 214.003 247.703C213.497 248.187 212.881 248.429 212.155 248.429C211.407 248.429 210.78 248.187 210.274 247.703C209.768 247.219 209.515 246.592 209.515 245.822C209.515 245.052 209.768 244.425 210.274 243.941C210.78 243.435 211.407 243.182 212.155 243.182C212.881 243.182 213.497 243.435 214.003 243.941C214.531 244.425 214.795 245.052 214.795 245.822ZM223.56 245.822C223.56 246.592 223.296 247.219 222.768 247.703C222.262 248.187 221.646 248.429 220.92 248.429C220.172 248.429 219.545 248.187 219.039 247.703C218.533 247.219 218.28 246.592 218.28 245.822C218.28 245.052 218.533 244.425 219.039 243.941C219.545 243.435 220.172 243.182 220.92 243.182C221.646 243.182 222.262 243.435 222.768 243.941C223.296 244.425 223.56 245.052 223.56 245.822ZM250.192 244.403V248H235.738V225.131H239.896V244.403H250.192ZM251.889 239.453C251.889 237.935 252.109 236.604 252.549 235.46C253.011 234.316 253.616 233.37 254.364 232.622C255.112 231.852 255.97 231.28 256.938 230.906C257.906 230.51 258.896 230.312 259.908 230.312C262.284 230.312 264.132 231.049 265.452 232.523C266.794 233.997 267.465 236.197 267.465 239.123C267.465 239.343 267.454 239.596 267.432 239.882C267.432 240.146 267.421 240.388 267.399 240.608H256.014C256.124 241.994 256.608 243.072 257.466 243.842C258.346 244.59 259.611 244.964 261.261 244.964C262.229 244.964 263.109 244.876 263.901 244.7C264.715 244.524 265.353 244.337 265.815 244.139L266.343 247.406C266.123 247.516 265.815 247.637 265.419 247.769C265.045 247.879 264.605 247.978 264.099 248.066C263.615 248.176 263.087 248.264 262.515 248.33C261.943 248.396 261.36 248.429 260.766 248.429C259.248 248.429 257.928 248.209 256.806 247.769C255.684 247.307 254.76 246.68 254.034 245.888C253.308 245.074 252.769 244.128 252.417 243.05C252.065 241.95 251.889 240.751 251.889 239.453ZM263.472 237.671C263.472 237.121 263.395 236.604 263.241 236.12C263.087 235.614 262.856 235.185 262.548 234.833C262.262 234.459 261.899 234.173 261.459 233.975C261.041 233.755 260.535 233.645 259.941 233.645C259.325 233.645 258.786 233.766 258.324 234.008C257.862 234.228 257.466 234.525 257.136 234.899C256.828 235.273 256.586 235.702 256.41 236.186C256.234 236.67 256.113 237.165 256.047 237.671H263.472ZM277.77 245.195C279.002 245.195 279.937 245.129 280.575 244.997V240.575C280.355 240.509 280.036 240.443 279.618 240.377C279.2 240.311 278.738 240.278 278.232 240.278C277.792 240.278 277.341 240.311 276.879 240.377C276.439 240.443 276.032 240.564 275.658 240.74C275.306 240.916 275.02 241.169 274.8 241.499C274.58 241.807 274.47 242.203 274.47 242.687C274.47 243.633 274.767 244.293 275.361 244.667C275.955 245.019 276.758 245.195 277.77 245.195ZM277.44 230.312C278.76 230.312 279.871 230.477 280.773 230.807C281.675 231.137 282.39 231.599 282.918 232.193C283.468 232.787 283.853 233.513 284.073 234.371C284.315 235.207 284.436 236.131 284.436 237.143V247.604C283.82 247.736 282.885 247.89 281.631 248.066C280.399 248.264 279.002 248.363 277.44 248.363C276.406 248.363 275.46 248.264 274.602 248.066C273.744 247.868 273.007 247.549 272.391 247.109C271.797 246.669 271.324 246.097 270.972 245.393C270.642 244.689 270.477 243.82 270.477 242.786C270.477 241.796 270.664 240.96 271.038 240.278C271.434 239.596 271.962 239.046 272.622 238.628C273.282 238.188 274.041 237.88 274.899 237.704C275.779 237.506 276.692 237.407 277.638 237.407C278.078 237.407 278.54 237.44 279.024 237.506C279.508 237.55 280.025 237.638 280.575 237.77V237.11C280.575 236.648 280.52 236.208 280.41 235.79C280.3 235.372 280.102 235.009 279.816 234.701C279.552 234.371 279.189 234.118 278.727 233.942C278.287 233.766 277.726 233.678 277.044 233.678C276.12 233.678 275.273 233.744 274.503 233.876C273.733 234.008 273.106 234.162 272.622 234.338L272.127 231.104C272.633 230.928 273.37 230.752 274.338 230.576C275.306 230.4 276.34 230.312 277.44 230.312ZM299.16 234.338C298.83 234.228 298.368 234.118 297.774 234.008C297.202 233.876 296.531 233.81 295.761 233.81C295.321 233.81 294.848 233.854 294.342 233.942C293.858 234.03 293.517 234.107 293.319 234.173V248H289.326V231.566C290.096 231.28 291.053 231.016 292.197 230.774C293.363 230.51 294.65 230.378 296.058 230.378C296.322 230.378 296.63 230.4 296.982 230.444C297.334 230.466 297.686 230.51 298.038 230.576C298.39 230.62 298.731 230.686 299.061 230.774C299.391 230.84 299.655 230.906 299.853 230.972L299.16 234.338ZM302.636 231.302C303.406 231.082 304.407 230.873 305.639 230.675C306.871 230.477 308.235 230.378 309.731 230.378C311.139 230.378 312.316 230.576 313.262 230.972C314.208 231.346 314.956 231.885 315.506 232.589C316.078 233.271 316.474 234.107 316.694 235.097C316.936 236.065 317.057 237.132 317.057 238.298V248H313.064V238.925C313.064 238.001 312.998 237.22 312.866 236.582C312.756 235.922 312.558 235.394 312.272 234.998C312.008 234.58 311.634 234.283 311.15 234.107C310.688 233.909 310.116 233.81 309.434 233.81C308.928 233.81 308.4 233.843 307.85 233.909C307.3 233.975 306.893 234.03 306.629 234.074V248H302.636V231.302ZM320.982 239.453C320.982 237.935 321.202 236.604 321.642 235.46C322.104 234.316 322.709 233.37 323.457 232.622C324.205 231.852 325.063 231.28 326.031 230.906C326.999 230.51 327.989 230.312 329.001 230.312C331.377 230.312 333.225 231.049 334.545 232.523C335.887 233.997 336.558 236.197 336.558 239.123C336.558 239.343 336.547 239.596 336.525 239.882C336.525 240.146 336.514 240.388 336.492 240.608H325.107C325.217 241.994 325.701 243.072 326.559 243.842C327.439 244.59 328.704 244.964 330.354 244.964C331.322 244.964 332.202 244.876 332.994 244.7C333.808 244.524 334.446 244.337 334.908 244.139L335.436 247.406C335.216 247.516 334.908 247.637 334.512 247.769C334.138 247.879 333.698 247.978 333.192 248.066C332.708 248.176 332.18 248.264 331.608 248.33C331.036 248.396 330.453 248.429 329.859 248.429C328.341 248.429 327.021 248.209 325.899 247.769C324.777 247.307 323.853 246.68 323.127 245.888C322.401 245.074 321.862 244.128 321.51 243.05C321.158 241.95 320.982 240.751 320.982 239.453ZM332.565 237.671C332.565 237.121 332.488 236.604 332.334 236.12C332.18 235.614 331.949 235.185 331.641 234.833C331.355 234.459 330.992 234.173 330.552 233.975C330.134 233.755 329.628 233.645 329.034 233.645C328.418 233.645 327.879 233.766 327.417 234.008C326.955 234.228 326.559 234.525 326.229 234.899C325.921 235.273 325.679 235.702 325.503 236.186C325.327 236.67 325.206 237.165 325.14 237.671H332.565ZM350.626 234.338C350.296 234.228 349.834 234.118 349.24 234.008C348.668 233.876 347.997 233.81 347.227 233.81C346.787 233.81 346.314 233.854 345.808 233.942C345.324 234.03 344.983 234.107 344.785 234.173V248H340.792V231.566C341.562 231.28 342.519 231.016 343.663 230.774C344.829 230.51 346.116 230.378 347.524 230.378C347.788 230.378 348.096 230.4 348.448 230.444C348.8 230.466 349.152 230.51 349.504 230.576C349.856 230.62 350.197 230.686 350.527 230.774C350.857 230.84 351.121 230.906 351.319 230.972L350.626 234.338ZM372.694 228.266C370.34 228.266 368.536 229.003 367.282 230.477C366.05 231.929 365.434 233.953 365.434 236.549C365.434 237.781 365.577 238.914 365.863 239.948C366.171 240.96 366.611 241.829 367.183 242.555C367.777 243.281 368.503 243.853 369.361 244.271C370.241 244.667 371.264 244.865 372.43 244.865C373.156 244.865 373.783 244.843 374.311 244.799C374.839 244.733 375.257 244.656 375.565 244.568V236.351H379.723V247.34C379.151 247.56 378.183 247.802 376.819 248.066C375.455 248.33 373.882 248.462 372.1 248.462C370.45 248.462 368.943 248.198 367.579 247.67C366.215 247.142 365.049 246.372 364.081 245.36C363.135 244.348 362.398 243.105 361.87 241.631C361.342 240.157 361.078 238.463 361.078 236.549C361.078 234.635 361.364 232.941 361.936 231.467C362.53 229.993 363.333 228.75 364.345 227.738C365.357 226.704 366.545 225.923 367.909 225.395C369.273 224.867 370.725 224.603 372.265 224.603C373.321 224.603 374.256 224.68 375.07 224.834C375.906 224.966 376.621 225.12 377.215 225.296C377.809 225.472 378.293 225.659 378.667 225.857C379.063 226.055 379.338 226.198 379.492 226.286L378.238 229.685C377.578 229.289 376.753 228.959 375.763 228.695C374.795 228.409 373.772 228.266 372.694 228.266ZM390.402 245.195C391.634 245.195 392.569 245.129 393.207 244.997V240.575C392.987 240.509 392.668 240.443 392.25 240.377C391.832 240.311 391.37 240.278 390.864 240.278C390.424 240.278 389.973 240.311 389.511 240.377C389.071 240.443 388.664 240.564 388.29 240.74C387.938 240.916 387.652 241.169 387.432 241.499C387.212 241.807 387.102 242.203 387.102 242.687C387.102 243.633 387.399 244.293 387.993 244.667C388.587 245.019 389.39 245.195 390.402 245.195ZM390.072 230.312C391.392 230.312 392.503 230.477 393.405 230.807C394.307 231.137 395.022 231.599 395.55 232.193C396.1 232.787 396.485 233.513 396.705 234.371C396.947 235.207 397.068 236.131 397.068 237.143V247.604C396.452 247.736 395.517 247.89 394.263 248.066C393.031 248.264 391.634 248.363 390.072 248.363C389.038 248.363 388.092 248.264 387.234 248.066C386.376 247.868 385.639 247.549 385.023 247.109C384.429 246.669 383.956 246.097 383.604 245.393C383.274 244.689 383.109 243.82 383.109 242.786C383.109 241.796 383.296 240.96 383.67 240.278C384.066 239.596 384.594 239.046 385.254 238.628C385.914 238.188 386.673 237.88 387.531 237.704C388.411 237.506 389.324 237.407 390.27 237.407C390.71 237.407 391.172 237.44 391.656 237.506C392.14 237.55 392.657 237.638 393.207 237.77V237.11C393.207 236.648 393.152 236.208 393.042 235.79C392.932 235.372 392.734 235.009 392.448 234.701C392.184 234.371 391.821 234.118 391.359 233.942C390.919 233.766 390.358 233.678 389.676 233.678C388.752 233.678 387.905 233.744 387.135 233.876C386.365 234.008 385.738 234.162 385.254 234.338L384.759 231.104C385.265 230.928 386.002 230.752 386.97 230.576C387.938 230.4 388.972 230.312 390.072 230.312ZM411.792 238.925C411.792 237.121 411.561 235.823 411.099 235.031C410.659 234.217 409.823 233.81 408.591 233.81C408.151 233.81 407.667 233.843 407.139 233.909C406.611 233.975 406.215 234.03 405.951 234.074V248H401.958V231.302C402.728 231.082 403.729 230.873 404.961 230.675C406.215 230.477 407.535 230.378 408.921 230.378C410.109 230.378 411.077 230.532 411.825 230.84C412.595 231.148 413.233 231.555 413.739 232.061C413.981 231.885 414.289 231.698 414.663 231.5C415.037 231.302 415.455 231.126 415.917 230.972C416.379 230.796 416.863 230.653 417.369 230.543C417.897 230.433 418.425 230.378 418.953 230.378C420.295 230.378 421.395 230.576 422.253 230.972C423.133 231.346 423.815 231.885 424.299 232.589C424.805 233.271 425.146 234.107 425.322 235.097C425.52 236.065 425.619 237.132 425.619 238.298V248H421.626V238.925C421.626 237.121 421.406 235.823 420.966 235.031C420.526 234.217 419.679 233.81 418.425 233.81C417.787 233.81 417.182 233.92 416.61 234.14C416.038 234.338 415.609 234.536 415.323 234.734C415.499 235.284 415.62 235.867 415.686 236.483C415.752 237.099 415.785 237.759 415.785 238.463V248H411.792V238.925ZM429.554 239.453C429.554 237.935 429.774 236.604 430.214 235.46C430.676 234.316 431.281 233.37 432.029 232.622C432.777 231.852 433.635 231.28 434.603 230.906C435.571 230.51 436.561 230.312 437.573 230.312C439.949 230.312 441.797 231.049 443.117 232.523C444.459 233.997 445.13 236.197 445.13 239.123C445.13 239.343 445.119 239.596 445.097 239.882C445.097 240.146 445.086 240.388 445.064 240.608H433.679C433.789 241.994 434.273 243.072 435.131 243.842C436.011 244.59 437.276 244.964 438.926 244.964C439.894 244.964 440.774 244.876 441.566 244.7C442.38 244.524 443.018 244.337 443.48 244.139L444.008 247.406C443.788 247.516 443.48 247.637 443.084 247.769C442.71 247.879 442.27 247.978 441.764 248.066C441.28 248.176 440.752 248.264 440.18 248.33C439.608 248.396 439.025 248.429 438.431 248.429C436.913 248.429 435.593 248.209 434.471 247.769C433.349 247.307 432.425 246.68 431.699 245.888C430.973 245.074 430.434 244.128 430.082 243.05C429.73 241.95 429.554 240.751 429.554 239.453ZM441.137 237.671C441.137 237.121 441.06 236.604 440.906 236.12C440.752 235.614 440.521 235.185 440.213 234.833C439.927 234.459 439.564 234.173 439.124 233.975C438.706 233.755 438.2 233.645 437.606 233.645C436.99 233.645 436.451 233.766 435.989 234.008C435.527 234.228 435.131 234.525 434.801 234.899C434.493 235.273 434.251 235.702 434.075 236.186C433.899 236.67 433.778 237.165 433.712 237.671H441.137ZM453.686 245.129C454.742 245.129 455.512 245.008 455.996 244.766C456.48 244.502 456.722 244.062 456.722 243.446C456.722 242.874 456.458 242.401 455.93 242.027C455.424 241.653 454.577 241.246 453.389 240.806C452.663 240.542 451.992 240.267 451.376 239.981C450.782 239.673 450.265 239.321 449.825 238.925C449.385 238.529 449.033 238.056 448.769 237.506C448.527 236.934 448.406 236.241 448.406 235.427C448.406 233.843 448.989 232.6 450.155 231.698C451.321 230.774 452.905 230.312 454.907 230.312C455.919 230.312 456.887 230.411 457.811 230.609C458.735 230.785 459.428 230.961 459.89 231.137L459.164 234.371C458.724 234.173 458.163 233.997 457.481 233.843C456.799 233.667 456.007 233.579 455.105 233.579C454.291 233.579 453.631 233.722 453.125 234.008C452.619 234.272 452.366 234.69 452.366 235.262C452.366 235.548 452.41 235.801 452.498 236.021C452.608 236.241 452.784 236.45 453.026 236.648C453.268 236.824 453.587 237.011 453.983 237.209C454.379 237.385 454.863 237.572 455.435 237.77C456.381 238.122 457.184 238.474 457.844 238.826C458.504 239.156 459.043 239.541 459.461 239.981C459.901 240.399 460.22 240.883 460.418 241.433C460.616 241.983 460.715 242.643 460.715 243.413C460.715 245.063 460.099 246.317 458.867 247.175C457.657 248.011 455.919 248.429 453.653 248.429C452.135 248.429 450.914 248.297 449.99 248.033C449.066 247.791 448.417 247.593 448.043 247.439L448.736 244.106C449.33 244.348 450.034 244.579 450.848 244.799C451.684 245.019 452.63 245.129 453.686 245.129Z" fill="black"/>
</g>
<defs>
<clipPath id="clip0_12_33">
<rect width="512" height="352" fill="white"/>
</clipPath>
</defs>
</svg>
